# xmcd CD database file
#
# Track frame offsets:
#	150
#	13575
#	27710
#	39715
#	53161
#	67244
#	78701
#	89782
#	104458
#	118889
#	128421
#	140899
#	153248
#	164188
#	177695
#	189729
#	201087
#	212709
#
# Disc length: 2984 seconds
#
# Revision: 3
# Processed by: cddbd v1.5.2PL0 Copyright (c) Steve Scherf et al.
# Submitted via: CDex 1.70beta2
#
DISCID=210ba612
DTITLE=Tito Puente - The Complete RCA Recordings - Disc 1
DYEAR=1900
DGENRE=Blues
TTITLE0=Ran Kan Kan
TTITLE1=Guayaba
TTITLE2=Chang
TTITLE3=Lagrimas Negras
TTITLE4=Arinañara
TTITLE5=Tuxedo Junction
TTITLE6=Lare Lare
TTITLE7=Swinging The Mambo
TTITLE8=Donde Estabas Tu?
TTITLE9=Take The "A" Train
TTITLE10=Picadillo
TTITLE11=Mi Chiquita Quier Guarachar
TTITLE12=Cuando Suenen Los Tambores
TTITLE13=Cao Cao Mani Picado
TTITLE14=El Baile Del Pinguino
TTITLE15=Candido
TTITLE16=Para Que Sufran Los Pollos
TTITLE17=Tu No Eres Nadie
EXTD=
EXTT0=
EXTT1=
EXTT2=
EXTT3=
EXTT4=
EXTT5=
EXTT6=
EXTT7=
EXTT8=
EXTT9=
EXTT10=
EXTT11=
EXTT12=
EXTT13=
EXTT14=
EXTT15=
EXTT16=
EXTT17=
PLAYORDER=
